<svg xmlns="http://www.w3.org/2000/svg" xmlns:xlink="http://www.w3.org/1999/xlink" width="200" zoomAndPan="magnify" viewBox="0 0 150 37.5" height="50" preserveAspectRatio="xMidYMid meet" version="1.2"><defs><clipPath id="0384ff10fb"><path d="M 65.917969 29 L 139.929688 29 L 139.929688 33.394531 L 65.917969 33.394531 Z M 65.917969 29 "/></clipPath></defs><g id="1e6d8629e5"><g style="fill:#5c00b3;fill-opacity:1;"><g transform="translate(-0.73176, 26.750645)"><path style="stroke:none" d="M 2 -16.921875 L 9.6875 -16.921875 C 11.53125 -16.921875 13.15625 -16.566406 14.5625 -15.859375 C 15.96875 -15.160156 17.0625 -14.175781 17.84375 -12.90625 C 18.625 -11.632812 19.015625 -10.148438 19.015625 -8.453125 C 19.015625 -6.765625 18.625 -5.285156 17.84375 -4.015625 C 17.0625 -2.742188 15.96875 -1.753906 14.5625 -1.046875 C 13.15625 -0.347656 11.53125 0 9.6875 0 L 2 0 Z M 9.5 -3.21875 C 11.1875 -3.21875 12.535156 -3.6875 13.546875 -4.625 C 14.554688 -5.570312 15.0625 -6.847656 15.0625 -8.453125 C 15.0625 -10.066406 14.554688 -11.34375 13.546875 -12.28125 C 12.535156 -13.226562 11.1875 -13.703125 9.5 -13.703125 L 5.921875 -13.703125 L 5.921875 -3.21875 Z M 9.5 -3.21875 "/></g></g><g style="fill:#5c00b3;fill-opacity:1;"><g transform="translate(19.228487, 26.750645)"><path style="stroke:none" d="M 14.484375 -6.453125 C 14.484375 -6.398438 14.457031 -6.0625 14.40625 -5.4375 L 4.5625 -5.4375 C 4.738281 -4.632812 5.15625 -4 5.8125 -3.53125 C 6.476562 -3.0625 7.304688 -2.828125 8.296875 -2.828125 C 8.972656 -2.828125 9.570312 -2.925781 10.09375 -3.125 C 10.613281 -3.332031 11.097656 -3.648438 11.546875 -4.078125 L 13.5625 -1.90625 C 12.332031 -0.507812 10.539062 0.1875 8.1875 0.1875 C 6.726562 0.1875 5.429688 -0.09375 4.296875 -0.65625 C 3.171875 -1.226562 2.300781 -2.019531 1.6875 -3.03125 C 1.082031 -4.050781 0.78125 -5.207031 0.78125 -6.5 C 0.78125 -7.769531 1.082031 -8.914062 1.6875 -9.9375 C 2.289062 -10.96875 3.117188 -11.769531 4.171875 -12.34375 C 5.222656 -12.914062 6.398438 -13.203125 7.703125 -13.203125 C 8.984375 -13.203125 10.140625 -12.925781 11.171875 -12.375 C 12.203125 -11.820312 13.007812 -11.035156 13.59375 -10.015625 C 14.1875 -8.992188 14.484375 -7.804688 14.484375 -6.453125 Z M 7.734375 -10.34375 C 6.878906 -10.34375 6.160156 -10.097656 5.578125 -9.609375 C 5.003906 -9.128906 4.648438 -8.472656 4.515625 -7.640625 L 10.921875 -7.640625 C 10.796875 -8.460938 10.441406 -9.117188 9.859375 -9.609375 C 9.273438 -10.097656 8.566406 -10.34375 7.734375 -10.34375 Z M 7.734375 -10.34375 "/></g></g><g style="fill:#5c00b3;fill-opacity:1;"><g transform="translate(34.476574, 26.750645)"><path style="stroke:none" d="M 6.109375 0.1875 C 5.035156 0.1875 3.984375 0.0546875 2.953125 -0.203125 C 1.921875 -0.472656 1.097656 -0.804688 0.484375 -1.203125 L 1.734375 -3.921875 C 2.316406 -3.546875 3.019531 -3.238281 3.84375 -3 C 4.664062 -2.769531 5.472656 -2.65625 6.265625 -2.65625 C 7.859375 -2.65625 8.65625 -3.050781 8.65625 -3.84375 C 8.65625 -4.21875 8.4375 -4.484375 8 -4.640625 C 7.5625 -4.796875 6.894531 -4.929688 6 -5.046875 C 4.9375 -5.210938 4.054688 -5.398438 3.359375 -5.609375 C 2.671875 -5.816406 2.070312 -6.1875 1.5625 -6.71875 C 1.050781 -7.25 0.796875 -8.003906 0.796875 -8.984375 C 0.796875 -9.804688 1.03125 -10.535156 1.5 -11.171875 C 1.976562 -11.816406 2.671875 -12.316406 3.578125 -12.671875 C 4.492188 -13.023438 5.570312 -13.203125 6.8125 -13.203125 C 7.726562 -13.203125 8.640625 -13.097656 9.546875 -12.890625 C 10.460938 -12.691406 11.21875 -12.414062 11.8125 -12.0625 L 10.5625 -9.375 C 9.414062 -10.019531 8.164062 -10.34375 6.8125 -10.34375 C 6.007812 -10.34375 5.40625 -10.226562 5 -10 C 4.601562 -9.78125 4.40625 -9.492188 4.40625 -9.140625 C 4.40625 -8.734375 4.617188 -8.445312 5.046875 -8.28125 C 5.484375 -8.125 6.175781 -7.972656 7.125 -7.828125 C 8.1875 -7.648438 9.054688 -7.460938 9.734375 -7.265625 C 10.410156 -7.066406 11 -6.695312 11.5 -6.15625 C 12 -5.625 12.25 -4.882812 12.25 -3.9375 C 12.25 -3.132812 12.007812 -2.414062 11.53125 -1.78125 C 11.050781 -1.15625 10.347656 -0.671875 9.421875 -0.328125 C 8.492188 0.015625 7.390625 0.1875 6.109375 0.1875 Z M 6.109375 0.1875 "/></g></g><g style="fill:#5c00b3;fill-opacity:1;"><g transform="translate(47.308167, 26.750645)"><path style="stroke:none" d="M 9.421875 -13.203125 C 10.628906 -13.203125 11.726562 -12.921875 12.71875 -12.359375 C 13.71875 -11.804688 14.5 -11.023438 15.0625 -10.015625 C 15.625 -9.015625 15.90625 -7.84375 15.90625 -6.5 C 15.90625 -5.164062 15.625 -3.992188 15.0625 -2.984375 C 14.5 -1.972656 13.71875 -1.191406 12.71875 -0.640625 C 11.726562 -0.0859375 10.628906 0.1875 9.421875 0.1875 C 7.765625 0.1875 6.460938 -0.332031 5.515625 -1.375 L 5.515625 4.6875 L 1.734375 4.6875 L 1.734375 -13 L 5.34375 -13 L 5.34375 -11.5 C 6.28125 -12.632812 7.640625 -13.203125 9.421875 -13.203125 Z M 8.78125 -2.90625 C 9.738281 -2.90625 10.523438 -3.226562 11.140625 -3.875 C 11.765625 -4.53125 12.078125 -5.40625 12.078125 -6.5 C 12.078125 -7.59375 11.765625 -8.46875 11.140625 -9.125 C 10.523438 -9.78125 9.738281 -10.109375 8.78125 -10.109375 C 7.8125 -10.109375 7.015625 -9.78125 6.390625 -9.125 C 5.773438 -8.46875 5.46875 -7.59375 5.46875 -6.5 C 5.46875 -5.40625 5.773438 -4.53125 6.390625 -3.875 C 7.015625 -3.226562 7.8125 -2.90625 8.78125 -2.90625 Z M 8.78125 -2.90625 "/></g></g><g style="fill:#5c00b3;fill-opacity:1;"><g transform="translate(63.981981, 26.750645)"><path style="stroke:none" d="M 14.484375 -6.453125 C 14.484375 -6.398438 14.457031 -6.0625 14.40625 -5.4375 L 4.5625 -5.4375 C 4.738281 -4.632812 5.15625 -4 5.8125 -3.53125 C 6.476562 -3.0625 7.304688 -2.828125 8.296875 -2.828125 C 8.972656 -2.828125 9.570312 -2.925781 10.09375 -3.125 C 10.613281 -3.332031 11.097656 -3.648438 11.546875 -4.078125 L 13.5625 -1.90625 C 12.332031 -0.507812 10.539062 0.1875 8.1875 0.1875 C 6.726562 0.1875 5.429688 -0.09375 4.296875 -0.65625 C 3.171875 -1.226562 2.300781 -2.019531 1.6875 -3.03125 C 1.082031 -4.050781 0.78125 -5.207031 0.78125 -6.5 C 0.78125 -7.769531 1.082031 -8.914062 1.6875 -9.9375 C 2.289062 -10.96875 3.117188 -11.769531 4.171875 -12.34375 C 5.222656 -12.914062 6.398438 -13.203125 7.703125 -13.203125 C 8.984375 -13.203125 10.140625 -12.925781 11.171875 -12.375 C 12.203125 -11.820312 13.007812 -11.035156 13.59375 -10.015625 C 14.1875 -8.992188 14.484375 -7.804688 14.484375 -6.453125 Z M 7.734375 -10.34375 C 6.878906 -10.34375 6.160156 -10.097656 5.578125 -9.609375 C 5.003906 -9.128906 4.648438 -8.472656 4.515625 -7.640625 L 10.921875 -7.640625 C 10.796875 -8.460938 10.441406 -9.117188 9.859375 -9.609375 C 9.273438 -10.097656 8.566406 -10.34375 7.734375 -10.34375 Z M 7.734375 -10.34375 "/></g></g><g style="fill:#5c00b3;fill-opacity:1;"><g transform="translate(79.230068, 26.750645)"><path style="stroke:none" d="M 6.109375 0.1875 C 5.035156 0.1875 3.984375 0.0546875 2.953125 -0.203125 C 1.921875 -0.472656 1.097656 -0.804688 0.484375 -1.203125 L 1.734375 -3.921875 C 2.316406 -3.546875 3.019531 -3.238281 3.84375 -3 C 4.664062 -2.769531 5.472656 -2.65625 6.265625 -2.65625 C 7.859375 -2.65625 8.65625 -3.050781 8.65625 -3.84375 C 8.65625 -4.21875 8.4375 -4.484375 8 -4.640625 C 7.5625 -4.796875 6.894531 -4.929688 6 -5.046875 C 4.9375 -5.210938 4.054688 -5.398438 3.359375 -5.609375 C 2.671875 -5.816406 2.070312 -6.1875 1.5625 -6.71875 C 1.050781 -7.25 0.796875 -8.003906 0.796875 -8.984375 C 0.796875 -9.804688 1.03125 -10.535156 1.5 -11.171875 C 1.976562 -11.816406 2.671875 -12.316406 3.578125 -12.671875 C 4.492188 -13.023438 5.570312 -13.203125 6.8125 -13.203125 C 7.726562 -13.203125 8.640625 -13.097656 9.546875 -12.890625 C 10.460938 -12.691406 11.21875 -12.414062 11.8125 -12.0625 L 10.5625 -9.375 C 9.414062 -10.019531 8.164062 -10.34375 6.8125 -10.34375 C 6.007812 -10.34375 5.40625 -10.226562 5 -10 C 4.601562 -9.78125 4.40625 -9.492188 4.40625 -9.140625 C 4.40625 -8.734375 4.617188 -8.445312 5.046875 -8.28125 C 5.484375 -8.125 6.175781 -7.972656 7.125 -7.828125 C 8.1875 -7.648438 9.054688 -7.460938 9.734375 -7.265625 C 10.410156 -7.066406 11 -6.695312 11.5 -6.15625 C 12 -5.625 12.25 -4.882812 12.25 -3.9375 C 12.25 -3.132812 12.007812 -2.414062 11.53125 -1.78125 C 11.050781 -1.15625 10.347656 -0.671875 9.421875 -0.328125 C 8.492188 0.015625 7.390625 0.1875 6.109375 0.1875 Z M 6.109375 0.1875 "/></g></g><g style="fill:#5c00b3;fill-opacity:1;"><g transform="translate(92.061661, 26.750645)"><path style="stroke:none" d="M 6.984375 -13.203125 C 8.992188 -13.203125 10.539062 -12.722656 11.625 -11.765625 C 12.707031 -10.804688 13.25 -9.359375 13.25 -7.421875 L 13.25 0 L 9.71875 0 L 9.71875 -1.625 C 9.007812 -0.414062 7.6875 0.1875 5.75 0.1875 C 4.75 0.1875 3.878906 0.0195312 3.140625 -0.3125 C 2.410156 -0.65625 1.851562 -1.125 1.46875 -1.71875 C 1.082031 -2.3125 0.890625 -2.988281 0.890625 -3.75 C 0.890625 -4.957031 1.34375 -5.90625 2.25 -6.59375 C 3.164062 -7.289062 4.578125 -7.640625 6.484375 -7.640625 L 9.46875 -7.640625 C 9.46875 -8.460938 9.21875 -9.09375 8.71875 -9.53125 C 8.226562 -9.976562 7.484375 -10.203125 6.484375 -10.203125 C 5.785156 -10.203125 5.101562 -10.09375 4.4375 -9.875 C 3.769531 -9.65625 3.203125 -9.359375 2.734375 -8.984375 L 1.375 -11.625 C 2.082031 -12.125 2.929688 -12.507812 3.921875 -12.78125 C 4.921875 -13.0625 5.941406 -13.203125 6.984375 -13.203125 Z M 6.703125 -2.34375 C 7.335938 -2.34375 7.90625 -2.488281 8.40625 -2.78125 C 8.90625 -3.082031 9.257812 -3.523438 9.46875 -4.109375 L 9.46875 -5.4375 L 6.890625 -5.4375 C 5.335938 -5.4375 4.5625 -4.929688 4.5625 -3.921875 C 4.5625 -3.429688 4.75 -3.046875 5.125 -2.765625 C 5.507812 -2.484375 6.035156 -2.34375 6.703125 -2.34375 Z M 6.703125 -2.34375 "/></g></g><g style="fill:#5c00b3;fill-opacity:1;"><g transform="translate(106.97144, 26.750645)"><path style="stroke:none" d="M 6.109375 0.1875 C 5.035156 0.1875 3.984375 0.0546875 2.953125 -0.203125 C 1.921875 -0.472656 1.097656 -0.804688 0.484375 -1.203125 L 1.734375 -3.921875 C 2.316406 -3.546875 3.019531 -3.238281 3.84375 -3 C 4.664062 -2.769531 5.472656 -2.65625 6.265625 -2.65625 C 7.859375 -2.65625 8.65625 -3.050781 8.65625 -3.84375 C 8.65625 -4.21875 8.4375 -4.484375 8 -4.640625 C 7.5625 -4.796875 6.894531 -4.929688 6 -5.046875 C 4.9375 -5.210938 4.054688 -5.398438 3.359375 -5.609375 C 2.671875 -5.816406 2.070312 -6.1875 1.5625 -6.71875 C 1.050781 -7.25 0.796875 -8.003906 0.796875 -8.984375 C 0.796875 -9.804688 1.03125 -10.535156 1.5 -11.171875 C 1.976562 -11.816406 2.671875 -12.316406 3.578125 -12.671875 C 4.492188 -13.023438 5.570312 -13.203125 6.8125 -13.203125 C 7.726562 -13.203125 8.640625 -13.097656 9.546875 -12.890625 C 10.460938 -12.691406 11.21875 -12.414062 11.8125 -12.0625 L 10.5625 -9.375 C 9.414062 -10.019531 8.164062 -10.34375 6.8125 -10.34375 C 6.007812 -10.34375 5.40625 -10.226562 5 -10 C 4.601562 -9.78125 4.40625 -9.492188 4.40625 -9.140625 C 4.40625 -8.734375 4.617188 -8.445312 5.046875 -8.28125 C 5.484375 -8.125 6.175781 -7.972656 7.125 -7.828125 C 8.1875 -7.648438 9.054688 -7.460938 9.734375 -7.265625 C 10.410156 -7.066406 11 -6.695312 11.5 -6.15625 C 12 -5.625 12.25 -4.882812 12.25 -3.9375 C 12.25 -3.132812 12.007812 -2.414062 11.53125 -1.78125 C 11.050781 -1.15625 10.347656 -0.671875 9.421875 -0.328125 C 8.492188 0.015625 7.390625 0.1875 6.109375 0.1875 Z M 6.109375 0.1875 "/></g></g><g style="fill:#5c00b3;fill-opacity:1;"><g transform="translate(119.803033, 26.750645)"><path style="stroke:none" d="M 3.171875 0.1875 C 2.503906 0.1875 1.945312 -0.0351562 1.5 -0.484375 C 1.050781 -0.929688 0.828125 -1.492188 0.828125 -2.171875 C 0.828125 -2.867188 1.050781 -3.429688 1.5 -3.859375 C 1.945312 -4.285156 2.503906 -4.5 3.171875 -4.5 C 3.828125 -4.5 4.378906 -4.285156 4.828125 -3.859375 C 5.285156 -3.429688 5.515625 -2.867188 5.515625 -2.171875 C 5.515625 -1.492188 5.285156 -0.929688 4.828125 -0.484375 C 4.378906 -0.0351562 3.828125 0.1875 3.171875 0.1875 Z M 3.171875 0.1875 "/></g></g><g style="fill:#5c00b3;fill-opacity:1;"><g transform="translate(126.134249, 26.750645)"><path style="stroke:none" d="M 1.734375 -13 L 5.515625 -13 L 5.515625 0 L 1.734375 0 Z M 3.625 -14.8125 C 2.925781 -14.8125 2.359375 -15.015625 1.921875 -15.421875 C 1.492188 -15.828125 1.28125 -16.328125 1.28125 -16.921875 C 1.28125 -17.515625 1.492188 -18.007812 1.921875 -18.40625 C 2.359375 -18.8125 2.925781 -19.015625 3.625 -19.015625 C 4.3125 -19.015625 4.875 -18.820312 5.3125 -18.4375 C 5.75 -18.050781 5.96875 -17.570312 5.96875 -17 C 5.96875 -16.363281 5.75 -15.835938 5.3125 -15.421875 C 4.875 -15.015625 4.3125 -14.8125 3.625 -14.8125 Z M 3.625 -14.8125 "/></g></g><g style="fill:#5c00b3;fill-opacity:1;"><g transform="translate(133.407904, 26.750645)"><path style="stroke:none" d="M 7.921875 0.1875 C 6.554688 0.1875 5.328125 -0.09375 4.234375 -0.65625 C 3.148438 -1.226562 2.300781 -2.019531 1.6875 -3.03125 C 1.082031 -4.050781 0.78125 -5.207031 0.78125 -6.5 C 0.78125 -7.789062 1.082031 -8.941406 1.6875 -9.953125 C 2.300781 -10.972656 3.148438 -11.769531 4.234375 -12.34375 C 5.328125 -12.914062 6.554688 -13.203125 7.921875 -13.203125 C 9.296875 -13.203125 10.519531 -12.914062 11.59375 -12.34375 C 12.675781 -11.769531 13.523438 -10.972656 14.140625 -9.953125 C 14.753906 -8.941406 15.0625 -7.789062 15.0625 -6.5 C 15.0625 -5.207031 14.753906 -4.050781 14.140625 -3.03125 C 13.523438 -2.019531 12.675781 -1.226562 11.59375 -0.65625 C 10.519531 -0.09375 9.296875 0.1875 7.921875 0.1875 Z M 7.921875 -2.90625 C 8.890625 -2.90625 9.679688 -3.226562 10.296875 -3.875 C 10.921875 -4.53125 11.234375 -5.40625 11.234375 -6.5 C 11.234375 -7.59375 10.921875 -8.46875 10.296875 -9.125 C 9.679688 -9.78125 8.890625 -10.109375 7.921875 -10.109375 C 6.960938 -10.109375 6.164062 -9.78125 5.53125 -9.125 C 4.90625 -8.46875 4.59375 -7.59375 4.59375 -6.5 C 4.59375 -5.40625 4.90625 -4.53125 5.53125 -3.875 C 6.164062 -3.226562 6.960938 -2.90625 7.921875 -2.90625 Z M 7.921875 -2.90625 "/></g></g><g clip-rule="nonzero" clip-path="url(#0384ff10fb)"><path style=" stroke:none;fill-rule:nonzero;fill:#5c00b3;fill-opacity:1;" d="M 65.914062 32.238281 C 66.085938 32.160156 66.257812 32.074219 66.433594 32.007812 C 70.210938 30.566406 74.128906 29.757812 78.144531 29.394531 C 82.902344 28.960938 87.65625 29.058594 92.402344 29.496094 C 97.742188 29.988281 103.074219 30.582031 108.414062 31.113281 C 114.378906 31.710938 120.355469 32.140625 126.359375 31.875 C 130.417969 31.695312 134.433594 31.210938 138.378906 30.199219 C 138.492188 30.171875 138.601562 30.132812 138.71875 30.113281 C 139.261719 30.011719 139.671875 30.230469 139.792969 30.675781 C 139.925781 31.160156 139.675781 31.585938 139.125 31.734375 C 138.578125 31.882812 138.023438 32.011719 137.46875 32.125 C 132.894531 33.050781 128.269531 33.289062 123.617188 33.21875 C 117.890625 33.128906 112.210938 32.507812 106.535156 31.800781 C 101.988281 31.234375 97.441406 30.65625 92.886719 30.171875 C 88.308594 29.683594 83.710938 29.472656 79.101562 29.765625 C 74.78125 30.039062 70.554688 30.789062 66.480469 32.296875 C 66.316406 32.355469 66.144531 32.394531 65.976562 32.441406 C 65.957031 32.371094 65.933594 32.304688 65.914062 32.238281 Z M 65.914062 32.238281 "/></g></g></svg>